<?xml version="1.0" standalone="no"?>
<!DOCTYPE svg PUBLIC "-//W3C//DTD SVG 20010904//EN"
 "http://www.w3.org/TR/2001/REC-SVG-20010904/DTD/svg10.dtd">
<svg version="1.0" xmlns="http://www.w3.org/2000/svg"
 width="512.000000pt" height="512.000000pt" viewBox="0 0 512.000000 512.000000"
 preserveAspectRatio="xMidYMid meet">
<metadata>
Created by potrace 1.13, written by Peter Selinger 2001-2015
</metadata>
<g transform="translate(0.000000,512.000000) scale(0.100000,-0.100000)"
fill="#000000" stroke="none">
<path d="M910 5111 c0 -5 -6 -8 -12 -8 -30 3 -202 -28 -258 -45 -19 -6 -75
-27 -124 -45 -48 -19 -127 -43 -175 -54 -47 -11 -90 -25 -95 -29 -10 -10 41
-81 141 -197 111 -130 175 -252 207 -398 50 -225 70 -280 124 -348 29 -35 171
-160 296 -257 31 -25 99 -78 149 -118 141 -112 231 -151 427 -182 86 -14 94
-2 -75 -111 -60 -40 -133 -95 -163 -123 -29 -28 -60 -54 -67 -59 -18 -10 -133
-151 -168 -205 -108 -168 -164 -323 -192 -536 -18 -131 -19 -208 -4 -330 99
-827 488 -1510 1040 -1830 45 -26 139 -72 174 -86 11 -4 31 -12 45 -18 14 -6
43 -16 65 -23 22 -6 48 -15 57 -20 10 -5 30 -9 46 -9 15 0 32 -4 38 -9 13 -13
266 -41 369 -41 155 0 431 35 560 71 22 6 55 13 73 16 18 3 35 9 38 14 3 5 15
9 28 9 12 0 26 4 32 8 5 4 27 14 49 21 49 16 230 103 299 145 198 120 419 347
555 570 34 56 142 271 171 341 25 59 64 168 86 234 13 42 28 90 34 106 19 59
68 261 79 325 26 152 31 202 31 297 0 356 -133 684 -378 932 -138 140 -415
315 -617 391 -33 12 -69 26 -80 31 -60 25 -293 83 -400 99 -44 6 -104 16 -134
21 -30 5 -119 9 -197 9 -86 0 -145 4 -149 10 -11 19 116 289 174 370 72 100
191 230 259 282 68 53 76 68 59 111 -30 70 -114 117 -211 117 l-61 0 -64 -67
c-131 -139 -242 -345 -297 -551 -8 -29 -14 -64 -14 -77 0 -13 -5 -27 -10 -30
-5 -3 -10 -21 -10 -38 0 -18 -6 -52 -14 -77 -17 -57 -39 -61 -87 -17 l-36 33
-6 111 c-8 127 -30 203 -89 313 -91 169 -197 287 -618 690 -101 96 -190 180
-199 186 -35 25 -130 52 -203 59 -43 4 -78 11 -78 16 0 5 -90 9 -210 9 -116 0
-210 -4 -210 -9z m593 -140 c54 -26 104 -71 369 -338 325 -325 339 -342 422
-468 88 -133 126 -254 126 -396 0 -38 5 -80 12 -94 8 -19 9 -28 0 -37 -8 -8
-14 -5 -21 14 -12 32 -141 204 -241 322 -41 48 -108 131 -149 184 -41 54 -104
135 -140 182 -80 102 -136 184 -181 265 -150 271 -196 341 -234 357 -41 17
-154 13 -351 -10 -93 -12 -222 -24 -285 -28 -63 -4 -129 -8 -146 -9 -17 -2
-43 0 -58 2 l-27 5 28 15 c36 19 172 51 265 63 40 5 180 7 311 5 l237 -4 63
-30z m-810 -289 c40 -27 121 -68 181 -92 60 -24 213 -96 340 -160 328 -166
387 -198 410 -218 12 -10 54 -40 93 -66 40 -27 104 -77 142 -110 38 -34 100
-83 137 -111 37 -27 90 -69 119 -91 28 -23 63 -47 76 -54 27 -14 187 -128 207
-147 19 -19 -3 -17 -95 7 -61 17 -102 20 -210 19 -73 -1 -136 -6 -139 -10 -13
-22 -71 -3 -105 34 -19 20 -35 22 -42 5 -3 -7 -6 -3 -6 10 -1 23 -26 31 -34
10 -3 -7 -6 -3 -6 10 -1 12 -6 22 -12 22 -6 0 -9 14 -7 32 2 19 -2 33 -9 35
-7 3 -13 0 -13 -6 0 -6 -7 -11 -15 -11 -16 0 -21 26 -6 32 5 2 3 9 -5 16 -8 7
-14 8 -14 2 0 -5 -7 -10 -15 -10 -9 0 -15 9 -15 22 0 17 -3 19 -12 10 -18 -18
-28 -15 -28 10 0 17 -3 19 -12 10 -18 -18 -28 -15 -28 8 0 11 5 20 11 20 6 0
25 6 42 14 18 8 53 17 80 21 26 3 47 10 47 16 0 10 -23 12 -33 2 -4 -3 -24 -8
-45 -10 -20 -2 -44 -6 -52 -9 -8 -3 -33 -7 -55 -9 -22 -2 -53 -6 -70 -11 -27
-7 -29 -6 -16 9 12 15 11 17 -2 17 -9 0 -19 -5 -22 -10 -4 -6 -11 -8 -16 -4
-6 4 -6 11 1 19 8 10 8 15 -1 21 -7 4 -15 2 -17 -4 -6 -19 -21 -14 -15 6 3 13
-5 21 -32 32 -19 8 -43 22 -52 32 -12 14 -19 15 -30 7 -10 -9 -13 -8 -13 5 0
10 8 16 21 16 11 0 35 11 53 25 18 14 39 25 47 25 18 1 54 28 47 36 -6 5 -110
-21 -215 -54 -27 -9 -33 -8 -33 4 0 8 -7 14 -16 14 -11 0 -15 6 -11 20 3 11 1
20 -4 20 -5 0 -9 7 -9 16 0 8 -4 13 -9 9 -5 -3 -12 -1 -15 4 -3 5 -15 7 -26 4
-22 -6 -29 22 -7 30 6 3 2 6 -10 6 -33 1 -28 15 12 34 40 19 50 54 13 42 -118
-37 -120 -37 -150 -8 -24 23 -30 25 -38 13 -8 -12 -10 -10 -10 8 0 12 -6 22
-14 22 -7 0 -21 16 -30 35 -9 19 -23 35 -31 35 -8 0 -15 5 -15 10 0 6 -6 10
-13 10 -17 0 -37 42 -37 75 0 28 -43 109 -74 140 -12 12 -42 36 -66 54 -68 49
-27 36 53 -17z m1954 -1114 c-3 -8 -6 -5 -6 6 -1 11 2 17 5 13 3 -3 4 -12 1
-19z m349 -37 c-8 -13 -36 -15 -36 -3 0 4 5 13 12 20 14 14 34 0 24 -17z m-53
12 c-7 -2 -21 -2 -30 0 -10 3 -4 5 12 5 17 0 24 -2 18 -5z m312 -12 c106 -17
129 -22 165 -31 19 -5 58 -14 85 -21 66 -15 160 -46 212 -70 24 -10 47 -19 53
-19 6 0 18 -4 28 -9 9 -5 34 -17 54 -25 20 -9 40 -20 42 -25 3 -5 17 -12 30
-15 29 -7 166 -90 234 -141 59 -45 242 -225 242 -238 0 -6 -13 1 -28 16 -16
15 -31 24 -35 21 -4 -4 -13 -1 -21 5 -8 7 -21 9 -27 5 -9 -5 -10 -2 -6 10 5
13 3 17 -7 13 -7 -3 -28 8 -45 24 -18 16 -44 32 -59 35 -15 4 -29 10 -32 14
-3 4 -25 17 -50 29 -25 12 -69 35 -98 51 -29 17 -57 28 -63 25 -5 -4 -9 -2 -9
3 0 20 -142 92 -181 92 -9 0 -20 7 -23 16 -3 8 -10 13 -15 10 -11 -7 -71 23
-71 36 0 5 -7 8 -15 5 -8 -4 -17 -2 -20 3 -4 6 -15 10 -26 10 -10 0 -27 4 -37
9 -9 5 -35 14 -57 21 -22 6 -59 20 -82 31 -24 10 -49 19 -57 19 -8 0 -18 5
-22 11 -3 6 -17 8 -30 5 -13 -4 -24 -3 -24 2 0 9 -79 32 -110 32 -11 0 -20 5
-20 10 0 6 -9 10 -20 10 -30 0 -100 24 -100 34 0 9 153 1 245 -13z m-628 -188
c-3 -10 -5 -4 -5 12 0 17 2 24 5 18 2 -7 2 -21 0 -30z m-826 -53 c16 0 29 -4
29 -10 0 -5 8 -10 18 -10 16 0 102 -81 102 -96 0 -14 92 -114 104 -114 7 0 21
-9 31 -20 10 -11 28 -20 41 -20 13 0 26 -5 29 -10 4 -6 12 -9 18 -8 7 1 32 -3
57 -9 87 -23 105 -26 134 -24 16 2 38 -2 50 -7 12 -6 50 -15 86 -22 36 -6 85
-17 110 -25 25 -8 61 -13 80 -12 19 2 40 -1 47 -6 15 -11 80 2 98 20 8 8 15
10 15 4 0 -13 32 -14 45 -2 6 5 39 12 75 16 76 7 90 9 110 17 8 4 38 9 65 12
28 4 61 8 75 10 14 2 48 7 75 11 28 4 55 12 62 17 7 5 14 5 18 -2 3 -6 12 -7
18 -3 36 22 127 -16 152 -64 10 -18 15 -36 12 -40 -4 -3 0 -11 7 -17 17 -14
38 -107 27 -121 -5 -5 -5 -34 -2 -62 4 -29 4 -58 -1 -65 -13 -21 -9 -38 10
-38 10 0 13 -3 6 -8 -6 -4 -14 -30 -18 -59 -5 -40 -3 -55 10 -67 11 -12 13
-20 6 -29 -6 -7 -8 -37 -5 -70 3 -36 1 -63 -7 -71 -7 -10 -8 -16 0 -21 5 -3
10 -1 10 5 0 6 7 18 15 26 8 9 15 11 15 5 0 -15 27 -14 33 2 3 7 6 5 6 -5 1
-10 -4 -18 -10 -18 -6 0 -9 -10 -7 -22 2 -15 10 -23 23 -23 12 0 20 -6 19 -15
-1 -12 7 -15 32 -12 22 3 39 -2 49 -12 9 -9 12 -16 6 -16 -11 0 -9 -38 4 -76
4 -15 13 -20 25 -17 15 4 18 -2 20 -31 0 -20 2 -44 2 -53 0 -10 -2 -31 -5 -46
-5 -24 -4 -27 9 -17 12 11 14 7 14 -23 0 -20 -4 -39 -10 -42 -5 -3 -10 -17
-10 -30 0 -13 -5 -27 -10 -30 -6 -4 -10 -12 -8 -18 2 -16 -27 -83 -41 -91 -6
-4 -8 -12 -4 -19 4 -7 9 -4 14 9 6 15 8 13 8 -11 1 -37 -24 -111 -36 -106 -4
2 -13 -5 -18 -17 -6 -11 -17 -27 -24 -36 -8 -9 -9 -16 -3 -16 6 0 13 6 15 13
3 7 6 5 6 -5 1 -10 -3 -18 -9 -18 -5 0 -10 -8 -10 -18 0 -9 -9 -23 -20 -30
-12 -7 -19 -16 -16 -20 3 -5 -9 -19 -26 -33 -55 -43 -68 -58 -62 -73 7 -18
-34 -66 -55 -66 -9 0 -22 -9 -29 -20 -7 -11 -19 -20 -27 -20 -8 0 -18 -12 -21
-27 -9 -34 -20 -45 -60 -63 -22 -10 -30 -19 -27 -31 4 -14 0 -16 -16 -12 -16
4 -20 2 -15 -10 6 -17 -11 -32 -21 -17 -9 15 -25 12 -25 -5 0 -8 -4 -14 -9
-13 -12 4 -71 -34 -71 -44 0 -5 5 -8 10 -8 6 0 10 -8 9 -17 0 -11 -3 -13 -6
-5 -7 18 -27 15 -42 -7 -8 -11 -20 -17 -28 -14 -8 3 -22 -2 -32 -11 -13 -12
-21 -14 -26 -7 -10 18 -21 13 -33 -15 -7 -15 -17 -22 -24 -18 -6 4 -24 8 -40
9 -21 2 -28 -1 -24 -11 3 -7 1 -16 -5 -19 -5 -4 -12 1 -15 10 -6 14 -8 14 -19
-2 -12 -16 -14 -16 -20 -2 -5 14 -10 15 -31 5 -13 -6 -24 -14 -24 -17 0 -3
-31 -6 -70 -7 -42 -1 -70 2 -70 8 0 5 -5 10 -11 10 -5 0 -7 -4 -4 -10 4 -6 -5
-10 -20 -10 -24 0 -25 1 -11 16 19 18 21 28 4 18 -6 -4 -17 1 -24 10 -8 12
-14 14 -19 6 -5 -8 -11 -8 -22 1 -12 10 -17 10 -25 -2 -7 -10 -8 -8 -4 10 4
18 2 21 -7 12 -19 -19 -36 -13 -30 12 4 21 4 21 -8 2 -13 -20 -13 -19 -19 4
-5 23 -6 24 -24 6 -18 -18 -18 -18 -11 15 6 28 5 32 -9 27 -9 -4 -20 1 -26 11
-8 15 -11 15 -20 2 -14 -21 -14 5 0 31 7 13 7 19 0 19 -5 0 -9 3 -9 8 3 19 -2
23 -16 12 -12 -10 -19 -10 -27 -2 -9 9 -18 7 -35 -10 -22 -21 -34 -13 -12 9 7
7 7 13 1 17 -5 3 -17 -3 -27 -14 -10 -11 -30 -20 -44 -20 l-26 0 27 14 c49 26
51 28 37 37 -7 4 -19 3 -26 -3 -18 -14 -83 -1 -83 17 0 8 -7 15 -16 15 -14 0
-14 1 0 16 18 18 21 34 6 34 -5 0 -10 10 -10 21 0 17 -3 19 -14 10 -9 -7 -17
-8 -20 -2 -3 5 -15 7 -26 4 -11 -3 -20 0 -20 6 0 6 -11 11 -25 11 -14 0 -25 5
-25 10 0 6 -7 10 -15 10 -8 0 -15 -6 -15 -12 0 -9 -3 -8 -9 2 -6 8 -8 18 -5
22 12 18 -18 48 -47 48 -24 0 -30 4 -27 18 4 23 -37 68 -47 52 -10 -16 -55 28
-48 46 5 13 -7 18 -34 15 -7 -1 -13 3 -13 9 0 6 -8 14 -17 17 -19 7 -43 28
-43 37 0 3 7 3 15 0 21 -8 19 8 -5 34 -11 12 -26 19 -34 16 -9 -4 -16 6 -20
30 -7 36 -21 47 -29 24 -2 -7 -3 -5 -2 4 4 25 -33 95 -61 117 -13 10 -24 25
-24 33 0 7 -9 22 -21 31 -14 13 -19 25 -15 42 6 25 -16 51 -35 39 -8 -5 -10 4
-7 30 3 26 0 35 -8 32 -7 -3 -10 2 -7 15 3 10 -1 29 -9 41 -18 29 -29 68 -18
68 5 0 10 -6 13 -12 2 -7 3 3 3 22 -1 19 -6 42 -11 50 -5 8 -8 25 -7 37 2 11
-2 24 -7 28 -6 3 -11 17 -11 31 0 14 4 22 10 19 15 -9 12 2 -6 20 -11 10 -13
20 -6 28 11 15 4 87 -10 87 -5 0 -6 5 -3 10 4 6 10 8 15 5 5 -3 3 10 -5 29 -8
20 -15 46 -15 60 0 14 -4 27 -9 30 -5 3 -7 15 -4 26 3 11 0 26 -6 34 -8 10 -9
16 -1 21 7 4 7 12 0 25 -5 10 -7 25 -4 33 3 9 1 24 -5 35 -8 15 -8 22 2 25 9
4 9 7 0 18 -15 15 -18 63 -3 54 6 -4 7 2 2 17 -4 13 -6 34 -5 48 8 63 16 101
24 106 5 3 9 14 9 25 0 46 87 179 117 179 7 0 12 4 10 8 -2 9 56 62 67 62 4 0
24 11 44 25 20 14 51 25 69 25 18 0 38 6 45 14 7 8 15 10 16 5 2 -5 17 -9 33
-9z m279 -2084 c0 -3 -4 -8 -10 -11 -5 -3 -10 -1 -10 4 0 6 5 11 10 11 6 0 10
-2 10 -4z m320 -161 c0 -8 -7 -15 -15 -15 -8 0 -15 7 -15 15 0 8 7 15 15 15 8
0 15 -7 15 -15z m1900 -65 c0 -5 -2 -10 -4 -10 -3 0 -8 5 -11 10 -3 6 -1 10 4
10 6 0 11 -4 11 -10z m-10 -27 c0 -2 -13 -24 -30 -48 -16 -24 -30 -48 -30 -54
0 -6 -4 -11 -8 -11 -4 0 -16 -13 -25 -30 -10 -16 -23 -35 -30 -42 -7 -7 -41
-46 -77 -87 -55 -63 -147 -149 -241 -226 -25 -20 -121 -80 -193 -120 -107 -60
-323 -138 -456 -166 -293 -61 -583 -67 -747 -16 -55 17 -83 42 -35 32 30 -6
47 8 20 17 -7 3 7 5 32 6 24 1 47 7 51 13 5 8 9 8 14 -1 5 -8 11 -7 24 4 9 8
25 15 36 15 56 0 114 7 121 14 4 4 40 7 81 7 42 0 73 4 73 10 0 6 18 10 39 10
22 0 42 4 45 8 3 5 45 12 93 15 48 4 89 11 91 17 2 5 19 10 37 10 19 0 37 5
40 10 4 6 14 8 23 6 17 -5 85 14 98 27 4 4 17 4 29 1 13 -3 26 -1 29 5 4 6 16
11 27 11 10 0 19 5 19 11 0 6 9 9 20 6 11 -3 42 6 68 19 26 13 55 24 64 24 9
0 20 5 23 10 3 6 19 10 34 10 16 0 34 7 41 15 7 8 18 14 24 13 18 -4 86 33
116 63 16 16 34 29 40 29 7 0 35 20 62 45 28 25 55 45 60 45 20 0 68 42 68 59
0 10 26 40 58 67 31 27 58 52 60 56 2 4 11 4 19 1 12 -5 15 -2 10 10 -4 12 2
22 19 33 14 10 23 23 20 30 -3 9 0 11 11 7 12 -5 15 -2 10 10 -4 11 -2 14 9
10 7 -3 14 -7 14 -10z"/>
<path d="M834 4462 c5 -8 76 -4 76 4 0 2 -18 4 -41 4 -22 0 -38 -4 -35 -8z"/>
<path d="M1150 4304 c0 -9 5 -14 12 -12 18 6 21 28 4 28 -9 0 -16 -7 -16 -16z"/>
<path d="M1783 3788 c-34 -9 -42 -21 -22 -34 6 -3 15 0 20 7 7 12 9 11 9 -1 0
-13 2 -13 9 -1 7 11 31 15 83 16 166 3 211 5 206 10 -9 9 -273 12 -305 3z"/>
<path d="M1833 3743 c-13 -2 -23 -8 -23 -13 0 -12 28 -6 42 8 7 7 10 11 8 11
-3 -1 -15 -4 -27 -6z"/>
<path d="M2201 1204 c0 -11 3 -14 6 -6 3 7 2 16 -1 19 -3 4 -6 -2 -5 -13z"/>
<path d="M3185 1000 c-3 -5 -1 -10 4 -10 6 0 11 5 11 10 0 6 -2 10 -4 10 -3 0
-8 -4 -11 -10z"/>
</g>
</svg>
